<?xml version="1.0" encoding="utf-8"?>
<!-- Generator: Adobe Illustrator 27.1.1, SVG Export Plug-In . SVG Version: 6.00 Build 0)  -->
<svg version="1.1" id="Layer_1" xmlns="http://www.w3.org/2000/svg" xmlns:xlink="http://www.w3.org/1999/xlink" x="0px" y="0px"
	 viewBox="0 0 534.5 100" style="enable-background:new 0 0 534.5 100;" xml:space="preserve">
<style type="text/css">
	.st0{font-family:'MyriadPro-Regular';}
	.st1{font-size:131.014px;}
	.st2{stroke:#FFFFFF;stroke-width:0.5;stroke-miterlimit:10;}
	.st3{font-size:129.8463px;}
	.st4{stroke:#000000;stroke-width:5;stroke-miterlimit:10;}
	.st5{font-size:51px;}
	.st6{font-size:21.3378px;}
	.st7{fill:#FFFFFF;stroke:#000000;stroke-width:2;stroke-miterlimit:10;}
</style>
<text transform="matrix(1.1608 -0.2234 0.2555 0.9668 56.8752 97.9819)" class="st0 st1">B</text>
<text transform="matrix(1.2266 0 0 1 -6.1904 96.7871)" class="st2 st0 st3">K</text>
<text transform="matrix(1.9165 0 0 1 170.878 66.5576)" class="st4 st0 st5">K</text>
<text transform="matrix(1.7685 0 0 1 247.4376 66.5576)" class="st4 st0 st5">A</text>
<text transform="matrix(1.7805 0 0 1 359.0053 66.5557)" class="st4 st0 st5">L</text>
<text transform="matrix(1.7805 0 0 1 308.8154 66.5557)" class="st4 st0 st5">L</text>
<text transform="matrix(1.5784 0 0 1 195.4473 94.2441)" class="st0 st6">B</text>
<text transform="matrix(1.5784 0 0 1 223.2842 94.4512)" class="st0 st6">O</text>
<text transform="matrix(1.5784 0 0 1 259.5371 94.8242)" class="st0 st6">K</text>
<text transform="matrix(1.5784 0 0 1 289.1084 94.623)" class="st0 st6">H</text>
<text transform="matrix(1.5784 0 0 1 320.0146 94.623)" class="st0 st6">A</text>
<text transform="matrix(1.5784 0 0 1 351.5703 94.623)" class="st0 st6">N</text>
<text transform="matrix(1.5784 0 0 1 382.7461 94.623)" class="st0 st6">D</text>
<text transform="matrix(1.5784 0 0 1 416.4375 94.2441)" class="st0 st6">E</text>
<text transform="matrix(1.5784 0 0 1 440.8154 94.4512)" class="st0 st6">L</text>
<text transform="matrix(1.1894 0 0 1 407.7477 66.5557)" class="st4 st0 st5">E</text>
<text transform="matrix(1.1894 0 0 1 444.9951 67.0664)" class="st4 st0 st5">S</text>
<line class="st7" x1="149.4" y1="-350.5" x2="149.4" y2="457.1"/>
</svg>
