<?xml version="1.0" encoding="utf-8"?>
<!-- Generator: Adobe Illustrator 27.0.0, SVG Export Plug-In . SVG Version: 6.00 Build 0)  -->
<svg version="1.1" id="Layer_1" xmlns="http://www.w3.org/2000/svg" xmlns:xlink="http://www.w3.org/1999/xlink" x="0px" y="0px"
	 viewBox="0 0 534.5 100" style="enable-background:new 0 0 534.5 100;" xml:space="preserve">
<style type="text/css">
	.st0{fill:#FFF8FA;}
</style>
<path class="st0" d="M0,2.2l0.1,40.9c0,19.3,15.3,43.1,39.8,56.9c24.4-13.8,39.8-37.6,39.8-56.9V2.2L0,2.2z M39.8,81.9
	c-7.4,0-13.4-1.4-13.4-1.9s6-1.9,13.4-1.9s13.4,1.4,13.4,1.9S47.3,81.9,39.8,81.9z M39.8,71.6c-11.4,0-20.6-2.1-20.6-3s9.2-3,20.6-3
	s20.6,2.1,20.6,3S51.2,71.6,39.8,71.6z M39.8,59.6c-14,0-25.3-2.6-25.3-3.6s11.3-3.6,25.3-3.6s25.3,2.6,25.3,3.7
	S53.8,59.6,39.8,59.6L39.8,59.6z M66.1,44.2c-3.1,0.6-14.6,1.6-26.3,1.6s-23.3-1-26.3-1.6c-0.2,0-0.4-0.2-0.3-0.3
	c5.2-13.7,14.3-25.6,26.2-34.3c0.2-0.2,0.5-0.2,0.7,0c11.9,8.6,21,20.6,26.2,34.3C66.5,44,66.3,44.1,66.1,44.2z"/>
<path class="st0" d="M126.9,74.8h4.6v20.8h-4.6V74.8z"/>
<path class="st0" d="M156.2,85.2c0,6.2-4.2,10.4-10.4,10.4H137V74.8h8.8C152.1,74.8,156.2,79,156.2,85.2z M151.5,85.2
	c0-3.8-2.4-6.3-5.9-6.3h-4v12.7h4C149.2,91.6,151.5,89,151.5,85.2z"/>
<path class="st0" d="M164.7,78.9v4.7h8.3v3.5h-8.2v4.4h8.7v4h-13.3V74.8h13.3v4L164.7,78.9z"/>
<path class="st0" d="M195.3,95.2l-0.2,0.4h-4.8l-6.1-7h-1.7v7h-4.4V74.8h7.5c5,0,8.3,2.8,8.3,6.9c0,3-2,5.7-4.9,6.5L195.3,95.2z
	 M182.5,85.2h2.6c2.7,0,4.3-1.4,4.3-3.3s-1.6-3.2-4.3-3.2h-2.6V85.2z"/>
<path class="st0" d="M203.3,78.9v4.7h8.2v3.5h-8.2v4.4h8.7v4h-13.3V74.8H212v4L203.3,78.9z"/>
<path class="st0" d="M237,84.2v1c0.2,5.8-4.4,10.6-10.2,10.8c-0.1,0-0.3,0-0.4,0c-6.2,0-11.2-4.4-11.2-10.7s5-10.8,11.3-10.8
	c3,0,5.9,1,8.2,2.9l-2.2,3.3l-0.2,0.1c-1.6-1.4-3.6-2.1-5.8-2.1c-3.7,0.2-6.5,3.4-6.3,7.1c0.2,3.3,2.9,6,6.2,6.3
	c2.7,0.1,5-1.7,5.7-4.2h-5.8v-3.6H237z"/>
<path class="st0" d="M253.5,91.6h-10l-1.8,4h-4.6l9.2-20c-0.9-0.6-1.5-1.7-1.5-2.8c0.2-2,1.9-3.6,4-3.4c1.8,0.1,3.3,1.6,3.4,3.4
	c0,1.2-0.6,2.2-1.5,2.9l9.2,19.9h-4.6L253.5,91.6z M251.9,87.9l-3.4-7.6l-3.3,7.6H251.9z M246.9,72.8c0,0.9,0.8,1.7,1.7,1.7
	c0.9,0,1.7-0.8,1.7-1.7c0-0.9-0.8-1.7-1.7-1.7C247.6,71.1,246.9,71.9,246.9,72.8z"/>
<path class="st0" d="M266.9,78.9v4.7h8.2v3.5h-8.2v4.4h8.7v4h-13.3V74.8h13.3v4L266.9,78.9z"/>
<path class="st0" d="M298.3,74.8v20.8H297l-12.1-11.9v11.9h-4.6V74.8h1.3l12.1,12.2V74.8H298.3z"/>
<path class="st0" d="M323,85.2c0,6.2-4.2,10.4-10.4,10.4h-8.8V74.8h8.8C318.9,74.8,323,79,323,85.2z M318.3,85.2
	c0-3.8-2.4-6.3-5.9-6.3h-4v12.7h4C316,91.6,318.3,89,318.3,85.2z"/>
<path class="st0" d="M331.6,78.9v4.7h8.2v3.5h-8.2v4.4h8.7v4H327V74.8h13.3v4L331.6,78.9z"/>
<path class="st0" d="M353.5,94.6l-0.7-4.3l0.1-0.1c2.2,1.2,4.7,1.8,7.2,1.9c2.5,0,4.2-0.8,4.2-2.3c0-1.1-0.7-1.7-1.9-2.1l-5.4-1.5
	c-2.4-0.7-4.1-3-4-5.5c0-4,3.3-6.3,8.1-6.3c2.2,0,4.5,0.4,6.5,1.4V80c-1.9-1.1-4.1-1.7-6.3-1.7c-2.7,0-3.7,1-3.7,2.4
	c0,0.7,0.2,1.7,1.8,2.2l5.2,1.5c2.7,0.8,4.3,2.7,4.3,5.3c0,4-3.6,6.2-8.5,6.2C358,95.9,355.7,95.5,353.5,94.6z"/>
<path class="st0" d="M391.1,95.2l-0.2,0.4h-4.5l-5.6-8.1c-1,0.3-2,0.5-3.1,0.7l-0.5,0.1v7.4h-4.6V74.8h4.6v9.5h0.1
	c4.3-1,7.3-3.7,7.3-8.1v-1.4h4.7v1.6c0.1,3.7-1.6,7.1-4.6,9.2L391.1,95.2z"/>
<path class="st0" d="M392.4,85.2c0-5.9,4.7-10.7,10.6-10.8c0.1,0,0.3,0,0.4,0c6.3,0,11,4.6,11,10.8c0,5.9-4.7,10.7-10.6,10.8
	c-0.1,0-0.3,0-0.4,0C397.1,96,392.4,91.4,392.4,85.2z M409.8,85.2c0.1-3.5-2.6-6.5-6.1-6.6c-0.1,0-0.2,0-0.2,0
	c-3.7-0.1-6.8,2.7-6.9,6.4s2.7,6.8,6.4,6.9c3.7,0.1,6.8-2.7,6.9-6.4C409.8,85.4,409.8,85.3,409.8,85.2z"/>
<path class="st0" d="M431.4,91.4v4.2h-13V74.8h4.6v16.6H431.4z"/>
<path class="st0" d="M439.2,78.9v4.7h8.2v3.5h-8.2v4.4h8.8v4h-13.3V74.8H448v4L439.2,78.9z"/>
<polygon class="st0" points="124.1,74.8 124.1,75.2 115.6,95.6 111.8,95.6 103.4,75.2 103.4,74.8 108.1,74.8 113.8,90 119.3,74.8 
	"/>
<path class="st0" d="M156.1,2.2V56h-11.8V34.8h-26.1V56h-11.8V2.2h11.8v22.2h26.1V2.2H156.1z"/>
<path class="st0" d="M223.7,29.1c0,16-12.6,27.8-28.6,27.8c-5.3,0-10.6-1.3-15.2-4l-5,6l-4.9-4.1l4.8-5.8c-5.4-5.2-8.4-12.5-8.2-20
	c0-16,12.5-27.8,28.6-27.8c5.6,0,11.1,1.5,15.9,4.4l4.7-5.6l5,4.1l-4.7,5.6C221.1,14.9,223.9,21.9,223.7,29.1z M182.3,40.2
	l21.6-25.8c-2.6-1.6-5.6-2.5-8.7-2.5c-9.6,0-16.5,7.4-16.5,17.2C178.6,33.1,179.9,37,182.3,40.2z M211.7,29.1
	c0.1-3.7-1-7.3-3.1-10.4l-21.4,25.6c2.4,1.3,5.2,2,8,2C204.5,46.3,211.7,39,211.7,29.1z"/>
<path class="st0" d="M280.8,2.2V56h-3.5L246,25.3V56h-11.8V2.2h3.4l31.3,31.7V2.2H280.8z"/>
<path class="st0" d="M306.3,12.7v12.1h21.3V34h-21.3v11.6h22.5V56h-34.3V2.2h34.3v10.4H306.3z"/>
<path class="st0" d="M352.4,12.7v12.7h20.2v9.4h-20.2V56h-11.8V2.2h34.3v10.4H352.4z"/>
<path class="st0" d="M380.4,29.1c0-16,12.5-27.8,28.6-27.8c16.4,0,28.6,11.8,28.6,27.8S424.9,56.9,409,56.9
	C392.6,56.9,380.4,45.1,380.4,29.1z M425.5,29.1c0-10-7.4-17.2-16.5-17.2c-9.6,0-16.5,7.4-16.5,17.2s7,17.2,16.5,17.2
	C418.3,46.3,425.5,39,425.5,29.1z"/>
<path class="st0" d="M446.5,53.3l-1.9-11.1l0.2-0.2c5.8,3,12.2,4.7,18.7,4.8c6.5,0,10.8-2.2,10.8-5.8c0-2.8-1.9-4.3-5-5.4l-13.9-3.9
	c-7.7-2.6-10.4-8.5-10.4-14.3c0-10.3,8.5-16.2,21-16.2c6.3,0,13.4,1.5,16.8,3.5v10.7c-4.1-2.9-11.1-4.3-16.4-4.3
	c-7.1,0-9.5,2.6-9.5,6.2c0,1.8,0.6,4.3,4.8,5.7l13.4,4c6.9,2,11.1,6.8,11.1,13.7c0,10.2-9.2,16.1-22,16.1
	C458.1,56.8,452.1,55.6,446.5,53.3z"/>
<path class="st0" d="M494.9,53.3l-1.9-11.1l0.2-0.2c5.8,3,12.2,4.7,18.8,4.8c6.5,0,10.8-2.2,10.8-5.8c0-2.8-1.9-4.3-5-5.4l-13.9-3.9
	c-7.7-2.6-10.4-8.5-10.4-14.3c0-10.3,8.5-16.2,21-16.2c6.3,0,13.4,1.5,16.8,3.5v10.7c-4.2-2.9-11.1-4.3-16.4-4.3
	c-7.1,0-9.5,2.6-9.5,6.2c0,1.8,0.6,4.3,4.8,5.7l13.4,4c6.9,2,11.1,6.8,11.1,13.7c0,10.2-9.2,16.1-22,16.1
	C506.5,56.8,500.5,55.6,494.9,53.3z"/>
</svg>
